<svg width="556" height="243" viewBox="0 0 556 243" fill="none" xmlns="http://www.w3.org/2000/svg">
<rect x="23.014" y="0.907396" width="154.74" height="82.7244" stroke="black" stroke-width="0.994967"/>
<path d="M99.9452 1.31012V83.6792" stroke="black" stroke-width="0.994967"/>
<path d="M61.2309 1.31012V83.6792" stroke="black" stroke-width="0.994967"/>
<path d="M22.5165 41.8195H99.9442" stroke="black" stroke-width="0.994967"/>
<rect x="206.905" y="19.8118" width="154.74" height="63.82" stroke="black" stroke-width="0.994967"/>
<path d="M258.32 19.3143V84.1293" stroke="black" stroke-width="0.994967"/>
<path d="M310.231 19.3143V84.1293" stroke="black" stroke-width="0.994967"/>
<rect x="23.014" y="159.865" width="154.74" height="63.82" stroke="black" stroke-width="0.994967"/>
<rect x="206.905" y="159.865" width="154.74" height="63.82" stroke="black" stroke-width="0.994967"/>
<rect x="390.796" y="159.865" width="154.74" height="63.82" stroke="black" stroke-width="0.994967"/>
<rect x="390.796" y="19.8118" width="154.74" height="63.82" stroke="black" stroke-width="0.994967"/>
<path d="M467.725 19.3143V84.1293" stroke="black" stroke-width="0.994967"/>
<rect x="1.01785" y="141.861" width="94.0299" height="99.8283" stroke="#FF6A6A" stroke-width="0.994967" stroke-dasharray="3.98 2.98"/>
<rect x="236.82" y="141.861" width="94.0299" height="99.8283" stroke="#FF6A6A" stroke-width="0.994967" stroke-dasharray="3.98 2.98"/>
<rect x="461.184" y="141.861" width="94.0299" height="99.8283" stroke="#FF6A6A" stroke-width="0.994967" stroke-dasharray="3.98 2.98"/>
<path d="M1.83988 191.775H22.5166M1.83988 191.775L4.03953 189.975M1.83988 191.775L4.03953 193.576" stroke="#FF6A6A" stroke-width="0.994967"/>
<path d="M554.392 191.775L546.034 191.775M554.392 191.775L552.193 189.975M554.392 191.775L552.193 193.576" stroke="#FF6A6A" stroke-width="0.994967"/>
</svg>
